<svg xmlns="http://www.w3.org/2000/svg" width="836" height="825" viewBox="0 0 836 825" version="1.1"><path d="M 375 15.633 C 343.213 17.206, 323.112 20.477, 299.146 27.976 C 290.541 30.669, 277.200 34.736, 269.500 37.014 C 261.303 39.439, 249.490 43.974, 241 47.956 C 233.025 51.696, 222.675 56.394, 218 58.396 C 213.325 60.398, 206.800 64.076, 203.500 66.568 C 200.200 69.061, 194.125 72.876, 190 75.045 C 185.875 77.214, 178.044 82.362, 172.597 86.485 C 167.151 90.608, 160.340 95.310, 157.461 96.935 C 154.583 98.560, 149.623 102.837, 146.440 106.440 C 143.257 110.044, 137.869 114.805, 134.466 117.022 C 130.953 119.311, 126.301 123.601, 123.700 126.950 C 121.181 130.194, 116.682 134.649, 113.702 136.851 C 110.723 139.052, 106.780 142.798, 104.941 145.176 C 103.102 147.554, 98.423 152.875, 94.542 157 C 90.662 161.125, 85.276 167.875, 82.572 172 C 79.869 176.125, 74.903 183.119, 71.538 187.541 C 68.172 191.964, 63.235 199.839, 60.566 205.041 C 57.898 210.244, 53.312 218.100, 50.375 222.500 C 46.783 227.881, 43.891 233.898, 41.540 240.880 C 39.618 246.589, 36.005 254.533, 33.512 258.533 C 27.308 268.487, 26.560 270.557, 23.631 285.882 C 21.573 296.655, 20.098 301.335, 16.069 309.882 C 8.616 325.693, 7.533 332.423, 3.904 385.500 C 3.227 395.400, 2.152 404.400, 1.515 405.500 C 0.092 407.958, 0.440 416.190, 2.360 425.500 C 3.154 429.350, 4.100 437.225, 4.462 443 C 6.933 482.403, 9.153 495.743, 15.361 508.500 C 20.684 519.437, 20.380 518.468, 23.936 535.856 C 26.801 549.862, 27.772 552.320, 34.908 563.624 C 36.687 566.443, 39.854 573.464, 41.946 579.227 C 44.038 584.990, 47.459 592.359, 49.548 595.603 C 51.638 598.846, 56.662 607.530, 60.714 614.901 C 64.766 622.272, 70.702 631.561, 73.906 635.544 C 77.111 639.527, 82.069 646.166, 84.925 650.298 C 92.866 661.784, 99.811 665.663, 126.279 673.392 C 164.622 684.589, 223.457 685.500, 260.500 675.471 C 272.426 672.242, 278.271 670.846, 304.494 664.965 C 309.950 663.742, 318.113 660.776, 325.245 657.426 C 331.712 654.388, 340.715 651.012, 345.252 649.924 C 364.561 645.292, 366.389 644.647, 372.914 640.165 C 381.431 634.314, 385.975 632.643, 400.356 630.068 C 412.655 627.866, 415.924 626.591, 426.052 620.045 C 433.723 615.086, 437.862 613.736, 456.894 609.982 C 466.230 608.141, 475.059 605.730, 479.330 603.855 C 496.292 596.411, 503.194 595.048, 541.715 591.544 C 591.371 587.027, 606.774 587.099, 659.500 592.094 C 707.609 596.652, 715.927 599.993, 715.984 614.783 C 716.013 622.550, 706.215 637.728, 696.102 645.582 C 692.890 648.077, 688.357 652.746, 686.030 655.959 C 683.703 659.171, 679.120 663.740, 675.846 666.111 C 672.572 668.483, 668.314 672.352, 666.383 674.708 C 664.452 677.065, 658.963 681.755, 654.186 685.130 C 649.409 688.506, 643.203 693.211, 640.396 695.586 C 637.588 697.962, 630.613 702.872, 624.896 706.497 C 619.178 710.122, 611.733 715.043, 608.351 717.431 C 604.969 719.819, 597.319 723.654, 591.351 725.953 C 584.502 728.591, 578.471 731.714, 575 734.422 C 567.267 740.454, 565.099 741.360, 551.023 744.447 C 537.537 747.405, 536.050 747.999, 528.500 753.448 C 521.323 758.628, 513.942 760.494, 483 764.953 C 467.875 767.132, 449.200 769.879, 441.500 771.057 C 422.587 773.951, 395.871 773.385, 373 769.606 C 364.475 768.198, 348.500 765.887, 337.500 764.471 C 309.787 760.904, 305.769 759.862, 295.314 753.533 C 286.145 747.983, 282.359 746.558, 267.782 743.170 C 260.665 741.516, 257.360 740.041, 249.782 735.136 C 244.677 731.831, 236.900 727.790, 232.500 726.155 C 228.100 724.521, 221.575 721.808, 218 720.126 C 190.242 707.066, 160.362 710.358, 172.313 725.158 C 174.686 728.096, 178.035 732.569, 179.757 735.098 C 183.269 740.257, 185.108 741.621, 193 744.918 C 196.025 746.182, 201.031 749.399, 204.125 752.068 C 211.392 758.336, 214.306 759.986, 226.980 765.012 C 232.744 767.297, 239.558 770.707, 242.122 772.589 C 248.211 777.060, 251.519 778.378, 266.931 782.482 C 273.999 784.363, 283.853 787.736, 288.828 789.976 C 303.960 796.790, 345.130 803.970, 387 807.098 C 429.846 810.299, 508.062 801.675, 531.605 791.154 C 540.364 787.240, 549.185 784.384, 560 781.962 C 567.574 780.265, 572.593 778.227, 578.717 774.361 C 585.899 769.827, 592.119 766.755, 601.508 763.105 C 607.087 760.936, 611.462 758.317, 616 754.429 C 619.720 751.242, 626.402 746.990, 631.625 744.488 C 636.644 742.083, 643.619 737.699, 647.125 734.745 C 650.631 731.791, 656.198 727.844, 659.495 725.974 C 662.792 724.104, 667.312 720.698, 669.540 718.405 C 671.768 716.113, 676.603 711.986, 680.285 709.234 C 694.345 698.723, 717.655 676.089, 730.800 660.182 C 742.947 645.483, 744.712 643.144, 752.070 632 C 755.884 626.225, 761.031 618.632, 763.510 615.126 C 777.904 594.767, 772.987 579.155, 750.414 573.542 C 744.961 572.186, 737.125 569.919, 733 568.504 C 706.902 559.552, 662.028 551.697, 630 550.473 C 599.188 549.297, 593.448 546.025, 601.803 534.400 C 603.345 532.255, 606.020 528.025, 607.749 525 C 609.478 521.975, 613.897 516.575, 617.570 513 C 621.257 509.411, 627.528 501.492, 631.575 495.315 C 635.605 489.164, 641.150 481.341, 643.898 477.932 C 646.965 474.126, 650.485 467.961, 653.017 461.959 C 655.286 456.583, 659.094 449.556, 661.481 446.342 C 666.692 439.326, 668.003 436.116, 672.036 420.500 C 674.229 412.011, 676.592 405.806, 680.113 399.294 C 693.367 374.774, 696.305 293.464, 684.278 284.004 C 678.686 279.605, 656.247 284.525, 626.753 296.616 C 617.814 300.281, 607.686 304.334, 604.248 305.624 C 595.393 308.945, 588.569 312.523, 580.500 318.077 C 576.650 320.727, 570.880 324.053, 567.677 325.468 C 564.009 327.088, 559.165 330.585, 554.587 334.918 C 550.590 338.701, 545.335 342.791, 542.910 344.006 C 540.484 345.222, 535.767 349.057, 532.426 352.530 C 519.881 365.571, 508.758 361.583, 506.779 343.335 C 501.817 297.570, 493.277 262.654, 480.040 234 C 477.372 228.225, 473.501 219.675, 471.437 215 C 469.374 210.325, 465.134 202.675, 462.015 198 C 458.896 193.325, 455.029 187.043, 453.422 184.040 C 451.815 181.037, 447.973 175.862, 444.884 172.540 C 441.795 169.218, 438.098 164.183, 436.668 161.351 C 427.021 142.241, 405.347 142.066, 393.231 161 C 391.295 164.025, 387.134 169.213, 383.984 172.530 C 380.834 175.846, 377.074 180.893, 375.629 183.746 C 374.183 186.599, 370.912 191.285, 368.359 194.159 C 365.458 197.425, 361.569 203.907, 357.989 211.442 C 354.838 218.074, 349.753 228.738, 346.689 235.139 C 338.293 252.683, 336.449 257.498, 333.535 269.500 C 332.065 275.550, 328.625 287.475, 325.890 296 C 320.113 314.007, 318.014 326.129, 318.006 341.538 C 317.994 363.338, 309.418 369.375, 296.630 356.586 C 293.672 353.628, 288.158 349.113, 284.376 346.551 C 280.594 343.989, 274.125 338.986, 270 335.434 C 265.875 331.882, 258.450 326.894, 253.500 324.350 C 248.550 321.807, 241.716 317.760, 238.313 315.357 C 232.451 311.218, 223.464 307.136, 193.500 294.998 C 148.627 276.822, 128.383 279.953, 127.173 305.257 C 126.217 325.268, 128.981 344.813, 135.542 364.418 C 137.746 371.006, 139.740 379.940, 140.955 388.673 C 144.141 411.571, 144.426 412.459, 152.393 424.306 C 155.320 428.659, 157.921 434.245, 159.609 439.806 C 162.800 450.316, 165.692 456.246, 170.346 461.815 C 172.273 464.122, 176.371 470.711, 179.454 476.457 C 182.536 482.204, 187.583 489.964, 190.669 493.703 C 193.754 497.441, 197.851 502.975, 199.772 506 C 206.230 516.168, 238.229 547.364, 249.597 554.572 C 252.844 556.631, 259.100 560.911, 263.500 564.082 C 267.900 567.253, 276.197 572.178, 281.937 575.026 C 287.678 577.875, 295.231 582.010, 298.723 584.215 C 303.223 587.057, 308.533 589.163, 316.965 591.451 C 339.985 597.696, 341.687 602.557, 324 611.541 C 319.325 613.916, 312.350 617.922, 308.500 620.443 C 299.635 626.247, 295.420 627.513, 274.500 630.652 C 258.165 633.103, 251.369 634.858, 236.799 640.388 C 216.693 648.019, 172.170 647.017, 150.439 638.443 C 144.355 636.043, 134.230 632.891, 127.939 631.437 C 112.567 627.887, 109.220 625.848, 104.720 617.294 C 102.755 613.557, 98.788 607.575, 95.905 604 C 93.022 600.425, 88.046 592.100, 84.846 585.500 C 81.646 578.900, 76.981 570.092, 74.480 565.926 C 69.826 558.175, 51.654 506.266, 47.063 487.606 C 40.124 459.413, 38.811 384.957, 44.556 345.552 C 47.968 322.153, 65.842 268.720, 76.532 249.964 C 79.521 244.719, 83.609 236.619, 85.617 231.964 C 89.529 222.891, 91.536 219.576, 96.564 213.880 C 98.322 211.889, 101.576 207.164, 103.796 203.380 C 106.016 199.596, 109.490 194.925, 111.516 193 C 113.542 191.075, 117.266 186.800, 119.792 183.500 C 125.403 176.169, 145.813 155.615, 151.567 151.500 C 153.874 149.850, 157.909 146.108, 160.533 143.184 C 163.157 140.260, 168.048 136.029, 171.402 133.781 C 174.756 131.533, 180.213 127.121, 183.530 123.976 C 186.846 120.830, 191.796 117.115, 194.530 115.719 C 197.263 114.324, 202.425 110.632, 206 107.515 C 210.225 103.831, 216.349 99.988, 223.500 96.533 C 229.550 93.610, 237.136 89.148, 240.358 86.618 C 243.580 84.089, 248.080 81.529, 250.358 80.931 C 259.845 78.440, 272.406 73.818, 279.822 70.090 C 289.051 65.449, 294.903 63.875, 328.062 57.112 C 369.491 48.662, 377.956 47.718, 412 47.752 C 452.393 47.793, 450.331 47.515, 521.500 62.521 C 530.823 64.486, 535.954 66.257, 544.500 70.459 C 550.550 73.434, 560.225 77.298, 566 79.046 C 578.431 82.809, 580.530 83.822, 588.467 89.887 C 591.842 92.466, 597.524 95.556, 601.352 96.895 C 606.319 98.632, 609.751 100.716, 613.849 104.483 C 616.957 107.339, 622.067 111.306, 625.205 113.297 C 647.023 127.143, 697.884 173.131, 707.710 187.896 C 709.685 190.864, 713.882 196.140, 717.036 199.621 C 720.239 203.155, 724.808 209.893, 727.385 214.882 C 729.922 219.795, 734.084 226.375, 736.632 229.503 C 739.325 232.808, 742.631 238.608, 744.523 243.346 C 746.314 247.831, 750.475 257.125, 753.769 264 C 761.465 280.061, 765.844 292.715, 770.380 312 C 772.385 320.525, 775.571 334.025, 777.459 342 C 784.276 370.779, 785.504 384.036, 784.686 420 C 784.043 448.293, 783.415 452.697, 774.900 488.633 C 771.529 502.860, 768.148 517.200, 767.387 520.500 C 762.268 542.702, 775.013 555.190, 790.873 543.514 C 802.607 534.876, 805.499 528.112, 809.556 499.808 C 812.163 481.620, 812.697 479.113, 816.648 466.500 C 825.656 437.743, 825.821 384.721, 816.991 355.937 C 812.786 342.227, 811.379 335.489, 809.068 318 C 806.617 299.448, 804.662 292.248, 799.040 281.073 C 796.708 276.439, 792.844 266.640, 790.452 259.299 C 787.595 250.526, 784.405 243.132, 781.144 237.726 C 778.416 233.202, 773.469 223.875, 770.152 217 C 766.834 210.125, 761.708 201.350, 758.760 197.500 C 755.812 193.650, 751.766 187.800, 749.768 184.500 C 747.771 181.200, 743.513 175.350, 740.307 171.500 C 737.100 167.650, 733.154 162.700, 731.537 160.500 C 729.920 158.300, 725.425 153.333, 721.548 149.463 C 717.672 145.592, 712.641 140.344, 710.369 137.800 C 708.097 135.256, 704.497 132.071, 702.369 130.721 C 700.241 129.372, 696.057 125.450, 693.071 122.007 C 690.085 118.563, 685.298 114.247, 682.433 112.414 C 679.569 110.582, 675.065 106.554, 672.424 103.462 C 669.696 100.270, 665.530 96.782, 662.779 95.388 C 660.116 94.038, 654.875 90.136, 651.133 86.717 C 647.392 83.298, 640.544 78.404, 635.915 75.842 C 631.287 73.280, 623.604 68.737, 618.842 65.745 C 614.080 62.754, 607.555 59.262, 604.342 57.984 C 601.129 56.707, 593.728 53.292, 587.896 50.396 C 576.241 44.608, 554.544 36.770, 536.879 31.967 C 530.621 30.266, 520.326 27.130, 514 25 C 491.441 17.403, 427.006 13.061, 375 15.633 M 403.238 211.453 C 401.307 213.078, 399.046 217.133, 396.544 223.454 C 394.466 228.705, 391.078 235.364, 389.016 238.251 C 383.566 245.880, 379.595 254.370, 377.110 263.703 C 375.910 268.215, 372.896 276.489, 370.413 282.088 C 352.034 323.540, 350.937 429.410, 368.553 461.542 C 373.663 470.863, 375.935 477.406, 378.592 490.453 C 381.201 503.260, 383.107 507.853, 388.593 514.549 C 390.490 516.863, 393.197 521.601, 394.609 525.077 C 397.758 532.825, 402.344 539.657, 404.952 540.485 C 411.413 542.535, 430.518 522.054, 435.075 508.192 C 437.734 500.107, 440.181 495.108, 444.167 489.626 C 448.238 484.025, 449.577 480.566, 453.107 466.531 C 454.771 459.914, 458.110 447.652, 460.528 439.283 C 472.572 397.584, 472.777 340.092, 461.015 302.443 C 458.791 295.324, 455.809 284.550, 454.389 278.500 C 450.294 261.062, 449.200 257.577, 446.776 254.242 C 445.524 252.519, 443.096 249.172, 441.379 246.805 C 439.508 244.223, 436.822 237.891, 434.668 230.983 C 428.923 212.558, 413.393 202.908, 403.238 211.453 M 631 336.670 C 627.425 338.675, 621.253 341.578, 617.284 343.121 C 606.471 347.323, 602.746 349.448, 596.334 355.073 C 593.125 357.889, 587.350 361.738, 583.500 363.627 C 578.140 366.257, 575.425 368.405, 571.914 372.794 C 569.195 376.193, 564.934 379.946, 561.447 382.013 C 557.684 384.244, 553.983 387.589, 551.174 391.299 C 548.760 394.489, 544.351 398.935, 541.378 401.180 C 538.404 403.425, 533.901 408.240, 531.369 411.881 C 528.838 415.521, 525.241 419.773, 523.375 421.330 C 521.510 422.886, 517.687 428.061, 514.881 432.830 C 512.075 437.598, 507.822 444.459, 505.429 448.075 C 500.332 455.780, 499.185 458.331, 489.516 483.500 C 472.469 527.876, 469.843 548.173, 480.209 555.434 C 485.975 559.472, 506.208 553.185, 519.500 543.226 C 522.800 540.753, 530.130 536.505, 535.789 533.786 C 544.447 529.626, 546.656 528.069, 549.721 523.964 C 552.043 520.854, 555.382 518.008, 558.932 516.114 C 564.925 512.916, 567.804 510.184, 573.004 502.760 C 574.831 500.153, 578.764 496.340, 581.745 494.287 C 585.514 491.691, 588.239 488.716, 590.684 484.527 C 592.619 481.212, 596.804 475.782, 599.983 472.460 C 603.320 468.973, 607.334 463.300, 609.478 459.043 C 611.522 454.986, 615.710 447.598, 618.785 442.626 C 625.308 432.081, 631.865 417.627, 634.946 407 C 636.142 402.875, 639.872 391.400, 643.235 381.500 C 655.689 344.837, 650.478 325.742, 631 336.670 M 183.209 336.566 C 172.299 344.208, 176.437 382.807, 191.389 412.865 C 194.299 418.714, 198.363 427.891, 200.420 433.257 C 202.715 439.242, 206.237 445.908, 209.534 450.503 C 212.489 454.622, 216.721 461.098, 218.938 464.894 C 226.764 478.294, 257.763 512.155, 268 518.487 C 270.475 520.017, 275.015 523.647, 278.089 526.552 C 281.410 529.690, 286.446 533.089, 290.500 534.927 C 294.253 536.629, 299.838 540.106, 302.912 542.653 C 326.037 561.823, 351.869 559.159, 349.641 537.836 C 348.880 530.555, 345.157 517.110, 339.581 501.500 C 337.223 494.900, 334.441 486.128, 333.397 482.008 C 332.354 477.887, 329.833 471.362, 327.796 467.508 C 325.758 463.653, 321.866 455.938, 319.146 450.361 C 316.426 444.785, 311.568 436.864, 308.350 432.758 C 305.133 428.653, 300.475 422.425, 298 418.917 C 295.525 415.410, 289.895 408.931, 285.489 404.520 C 281.082 400.109, 275.896 394.700, 273.962 392.500 C 272.029 390.300, 267.759 386.366, 264.474 383.757 C 261.188 381.149, 255.086 375.974, 250.913 372.257 C 246.740 368.541, 240.112 363.742, 236.184 361.593 C 232.256 359.444, 226.577 355.619, 223.565 353.093 C 210.701 342.306, 188.181 333.083, 183.209 336.566" stroke="none" fill="#cda75c" fill-rule="evenodd"/><path d="M 387.500 0.625 C 173.769 17.498, 0 196.091, 0 398.883 C 0 414.632, 2.520 406.014, 3.913 385.500 C 7.504 332.606, 8.615 325.695, 16.069 309.882 C 20.098 301.335, 21.573 296.655, 23.631 285.882 C 26.560 270.557, 27.308 268.487, 33.512 258.533 C 36.005 254.533, 39.618 246.589, 41.540 240.880 C 43.891 233.898, 46.783 227.881, 50.375 222.500 C 53.312 218.100, 57.898 210.244, 60.566 205.041 C 63.235 199.839, 68.172 191.964, 71.538 187.541 C 74.903 183.119, 79.869 176.125, 82.572 172 C 85.276 167.875, 90.662 161.125, 94.542 157 C 98.423 152.875, 103.102 147.554, 104.941 145.176 C 106.780 142.798, 110.723 139.052, 113.702 136.851 C 116.682 134.649, 121.181 130.194, 123.700 126.950 C 126.301 123.601, 130.953 119.311, 134.466 117.022 C 137.869 114.805, 143.257 110.044, 146.440 106.440 C 149.623 102.837, 154.583 98.560, 157.461 96.935 C 160.340 95.310, 167.151 90.608, 172.597 86.485 C 178.044 82.362, 185.875 77.214, 190 75.045 C 194.125 72.876, 200.200 69.061, 203.500 66.568 C 206.800 64.076, 213.325 60.398, 218 58.396 C 222.675 56.394, 233.025 51.696, 241 47.956 C 249.490 43.974, 261.303 39.439, 269.500 37.014 C 277.200 34.736, 290.541 30.669, 299.146 27.976 C 351.812 11.495, 472.087 10.069, 515.548 25.410 C 521.022 27.342, 530.620 30.304, 536.879 31.992 C 554.378 36.712, 576.173 44.574, 587.896 50.396 C 593.728 53.292, 601.129 56.707, 604.342 57.984 C 607.555 59.262, 614.080 62.754, 618.842 65.745 C 623.604 68.737, 631.287 73.280, 635.915 75.842 C 640.544 78.404, 647.392 83.298, 651.133 86.717 C 654.875 90.136, 660.116 94.038, 662.779 95.388 C 665.530 96.782, 669.696 100.270, 672.424 103.462 C 675.065 106.554, 679.569 110.582, 682.433 112.414 C 685.298 114.247, 690.085 118.563, 693.071 122.007 C 696.057 125.450, 700.241 129.372, 702.369 130.721 C 704.497 132.071, 708.097 135.256, 710.369 137.800 C 712.641 140.344, 717.672 145.592, 721.548 149.463 C 725.425 153.333, 729.920 158.300, 731.537 160.500 C 733.154 162.700, 737.100 167.650, 740.307 171.500 C 743.513 175.350, 747.771 181.200, 749.768 184.500 C 751.766 187.800, 755.812 193.650, 758.760 197.500 C 761.708 201.350, 766.834 210.125, 770.152 217 C 773.469 223.875, 778.416 233.202, 781.144 237.726 C 784.405 243.132, 787.595 250.526, 790.452 259.299 C 792.844 266.640, 796.708 276.439, 799.040 281.073 C 804.662 292.248, 806.617 299.448, 809.068 318 C 811.379 335.489, 812.786 342.227, 816.991 355.937 C 825.821 384.721, 825.656 437.743, 816.648 466.500 C 812.697 479.113, 812.163 481.620, 809.556 499.808 C 805.499 528.112, 802.607 534.876, 790.873 543.514 C 775.013 555.190, 762.268 542.702, 767.387 520.500 C 768.148 517.200, 771.529 502.860, 774.900 488.633 C 783.415 452.697, 784.043 448.293, 784.686 420 C 785.504 384.036, 784.276 370.779, 777.459 342 C 775.571 334.025, 772.385 320.525, 770.380 312 C 765.844 292.715, 761.465 280.061, 753.769 264 C 750.475 257.125, 746.314 247.831, 744.523 243.346 C 742.631 238.608, 739.325 232.808, 736.632 229.503 C 734.084 226.375, 729.922 219.795, 727.385 214.882 C 724.808 209.893, 720.239 203.155, 717.036 199.621 C 713.882 196.140, 709.685 190.864, 707.710 187.896 C 697.884 173.131, 647.023 127.143, 625.205 113.297 C 622.067 111.306, 616.957 107.339, 613.849 104.483 C 609.751 100.716, 606.319 98.632, 601.352 96.895 C 597.524 95.556, 591.842 92.466, 588.467 89.887 C 580.530 83.822, 578.431 82.809, 566 79.046 C 560.225 77.298, 550.550 73.434, 544.500 70.459 C 535.954 66.257, 530.823 64.486, 521.500 62.521 C 450.331 47.515, 452.393 47.793, 412 47.752 C 377.956 47.718, 369.491 48.662, 328.062 57.112 C 294.903 63.875, 289.051 65.449, 279.822 70.090 C 272.406 73.818, 259.845 78.440, 250.358 80.931 C 248.080 81.529, 243.580 84.089, 240.358 86.618 C 237.136 89.148, 229.550 93.610, 223.500 96.533 C 216.349 99.988, 210.225 103.831, 206 107.515 C 202.425 110.632, 197.263 114.324, 194.530 115.719 C 191.796 117.115, 186.846 120.830, 183.530 123.976 C 180.213 127.121, 174.756 131.533, 171.402 133.781 C 168.048 136.029, 163.157 140.260, 160.533 143.184 C 157.909 146.108, 153.874 149.850, 151.567 151.500 C 145.813 155.615, 125.403 176.169, 119.792 183.500 C 117.266 186.800, 113.542 191.075, 111.516 193 C 109.490 194.925, 106.016 199.596, 103.796 203.380 C 101.576 207.164, 98.322 211.889, 96.564 213.880 C 91.536 219.576, 89.529 222.891, 85.617 231.964 C 83.609 236.619, 79.521 244.719, 76.532 249.964 C 65.842 268.720, 47.968 322.153, 44.556 345.552 C 38.811 384.957, 40.124 459.413, 47.063 487.606 C 51.654 506.266, 69.826 558.175, 74.480 565.926 C 76.981 570.092, 81.646 578.900, 84.846 585.500 C 88.046 592.100, 93.022 600.425, 95.905 604 C 98.788 607.575, 102.755 613.557, 104.720 617.294 C 109.220 625.848, 112.567 627.887, 127.939 631.437 C 134.230 632.891, 144.355 636.043, 150.439 638.443 C 172.170 647.017, 216.693 648.019, 236.799 640.388 C 251.369 634.858, 258.165 633.103, 274.500 630.652 C 295.420 627.513, 299.635 626.247, 308.500 620.443 C 312.350 617.922, 319.325 613.916, 324 611.541 C 341.687 602.557, 339.985 597.696, 316.965 591.451 C 308.533 589.163, 303.223 587.057, 298.723 584.215 C 295.231 582.010, 287.678 577.875, 281.937 575.026 C 276.197 572.178, 267.900 567.253, 263.500 564.082 C 259.100 560.911, 252.844 556.631, 249.597 554.572 C 244.296 551.211, 239.608 547.148, 223.406 531.876 C 212.888 521.962, 203.110 511.256, 199.772 506 C 197.851 502.975, 193.754 497.441, 190.669 493.703 C 187.583 489.964, 182.536 482.204, 179.454 476.457 C 176.371 470.711, 172.273 464.122, 170.346 461.815 C 165.692 456.246, 162.800 450.316, 159.609 439.806 C 157.921 434.245, 155.320 428.659, 152.393 424.306 C 144.426 412.459, 144.141 411.571, 140.955 388.673 C 139.740 379.940, 137.746 371.006, 135.542 364.418 C 114.881 302.673, 127.773 274.031, 170.500 286.755 C 189.231 292.332, 230.142 309.588, 238.313 315.357 C 241.716 317.760, 248.550 321.807, 253.500 324.350 C 258.450 326.894, 265.875 331.882, 270 335.434 C 274.125 338.986, 280.594 343.989, 284.376 346.551 C 288.158 349.113, 293.672 353.628, 296.630 356.586 C 309.418 369.375, 317.994 363.338, 318.006 341.538 C 318.014 326.129, 320.113 314.007, 325.890 296 C 328.625 287.475, 332.065 275.550, 333.535 269.500 C 336.449 257.498, 338.293 252.683, 346.689 235.139 C 349.753 228.738, 354.838 218.074, 357.989 211.442 C 361.569 203.907, 365.458 197.425, 368.359 194.159 C 370.912 191.285, 374.183 186.599, 375.629 183.746 C 377.074 180.893, 380.834 175.846, 383.984 172.530 C 387.134 169.213, 391.295 164.025, 393.231 161 C 405.347 142.066, 427.021 142.241, 436.668 161.351 C 438.098 164.183, 441.795 169.218, 444.884 172.540 C 447.973 175.862, 451.815 181.037, 453.422 184.040 C 455.029 187.043, 458.896 193.325, 462.015 198 C 465.134 202.675, 469.374 210.325, 471.437 215 C 473.501 219.675, 477.372 228.225, 480.040 234 C 493.277 262.654, 501.817 297.570, 506.779 343.335 C 508.758 361.583, 519.881 365.571, 532.426 352.530 C 535.767 349.057, 540.484 345.222, 542.910 344.006 C 545.335 342.791, 550.590 338.701, 554.587 334.918 C 559.165 330.585, 564.009 327.088, 567.677 325.468 C 570.880 324.053, 576.650 320.727, 580.500 318.077 C 588.569 312.523, 595.393 308.945, 604.248 305.624 C 607.686 304.334, 617.814 300.281, 626.753 296.616 C 656.247 284.525, 678.686 279.605, 684.278 284.004 C 696.305 293.464, 693.367 374.774, 680.113 399.294 C 676.592 405.806, 674.229 412.011, 672.036 420.500 C 668.003 436.116, 666.692 439.326, 661.481 446.342 C 659.094 449.556, 655.286 456.583, 653.017 461.959 C 650.485 467.961, 646.965 474.126, 643.898 477.932 C 641.150 481.341, 635.605 489.164, 631.575 495.315 C 627.528 501.492, 621.257 509.411, 617.570 513 C 613.897 516.575, 609.478 521.975, 607.749 525 C 606.020 528.025, 603.345 532.255, 601.803 534.400 C 593.448 546.025, 599.188 549.297, 630 550.473 C 662.028 551.697, 706.902 559.552, 733 568.504 C 737.125 569.919, 744.961 572.186, 750.414 573.542 C 772.987 579.155, 777.904 594.767, 763.510 615.126 C 761.031 618.632, 755.884 626.225, 752.070 632 C 744.712 643.144, 742.947 645.483, 730.800 660.182 C 717.655 676.089, 694.345 698.723, 680.285 709.234 C 676.603 711.986, 671.768 716.113, 669.540 718.405 C 667.312 720.698, 662.792 724.104, 659.495 725.974 C 656.198 727.844, 650.631 731.791, 647.125 734.745 C 643.619 737.699, 636.644 742.083, 631.625 744.488 C 626.402 746.990, 619.720 751.242, 616 754.429 C 611.462 758.317, 607.087 760.936, 601.508 763.105 C 592.119 766.755, 585.899 769.827, 578.717 774.361 C 572.593 778.227, 567.574 780.265, 560 781.962 C 549.185 784.384, 540.364 787.240, 531.605 791.154 C 508.062 801.675, 429.846 810.299, 387 807.098 C 345.130 803.970, 303.960 796.790, 288.828 789.976 C 283.853 787.736, 273.999 784.363, 266.931 782.482 C 251.519 778.378, 248.211 777.060, 242.122 772.589 C 239.558 770.707, 232.744 767.297, 226.980 765.012 C 214.306 759.986, 211.392 758.336, 204.125 752.068 C 201.031 749.399, 196.025 746.182, 193 744.918 C 185.108 741.621, 183.269 740.257, 179.757 735.098 C 178.035 732.569, 174.686 728.096, 172.313 725.158 C 160.362 710.358, 190.242 707.066, 218 720.126 C 221.575 721.808, 228.100 724.521, 232.500 726.155 C 236.900 727.790, 244.677 731.831, 249.782 735.136 C 257.360 740.041, 260.665 741.516, 267.782 743.170 C 282.359 746.558, 286.145 747.983, 295.314 753.533 C 305.769 759.862, 309.787 760.904, 337.500 764.471 C 348.500 765.887, 364.475 768.198, 373 769.606 C 395.871 773.385, 422.587 773.951, 441.500 771.057 C 449.200 769.879, 467.875 767.132, 483 764.953 C 513.942 760.494, 521.323 758.628, 528.500 753.448 C 536.050 747.999, 537.537 747.405, 551.023 744.447 C 565.099 741.360, 567.267 740.454, 575 734.422 C 578.471 731.714, 584.502 728.591, 591.351 725.953 C 597.319 723.654, 604.969 719.819, 608.351 717.431 C 611.733 715.043, 619.178 710.122, 624.896 706.497 C 630.613 702.872, 637.588 697.962, 640.396 695.586 C 643.203 693.211, 649.409 688.506, 654.186 685.130 C 658.963 681.755, 664.452 677.065, 666.383 674.708 C 668.314 672.352, 672.572 668.483, 675.846 666.111 C 679.120 663.740, 683.703 659.171, 686.030 655.959 C 688.357 652.746, 692.890 648.077, 696.102 645.582 C 706.215 637.728, 716.013 622.550, 715.984 614.783 C 715.927 599.993, 707.609 596.652, 659.500 592.094 C 606.774 587.099, 591.371 587.027, 541.715 591.544 C 503.194 595.048, 496.292 596.411, 479.330 603.855 C 475.059 605.730, 466.230 608.141, 456.894 609.982 C 437.862 613.736, 433.723 615.086, 426.052 620.045 C 415.924 626.591, 412.655 627.866, 400.356 630.068 C 385.975 632.643, 381.431 634.314, 372.914 640.165 C 366.389 644.647, 364.561 645.292, 345.252 649.924 C 340.715 651.012, 331.665 654.410, 325.140 657.475 C 316.611 661.481, 310.077 663.746, 301.888 665.532 C 283.518 669.541, 274.310 671.755, 260.500 675.482 C 223.388 685.498, 164.601 684.583, 126.279 673.392 C 99.811 665.663, 92.866 661.784, 84.925 650.298 C 82.069 646.166, 77.111 639.527, 73.906 635.544 C 70.702 631.561, 64.766 622.272, 60.714 614.901 C 56.662 607.530, 51.638 598.846, 49.548 595.603 C 47.459 592.359, 44.038 584.990, 41.946 579.227 C 39.854 573.464, 36.687 566.443, 34.908 563.624 C 27.772 552.320, 26.801 549.862, 23.936 535.856 C 20.380 518.468, 20.684 519.437, 15.361 508.500 C 9.165 495.768, 7.386 485.728, 4.996 450 C 3.271 424.227, 0.091 408.913, 0.030 426.089 C -0.542 587.801, 119.970 748.931, 281.936 803.010 C 537.467 888.330, 812.008 714.777, 834.030 454 C 834.657 446.575, 835.549 439.770, 836.013 438.878 C 837.042 436.901, 837.169 384.777, 836.144 385.411 C 835.744 385.658, 834.874 379.628, 834.211 372.010 C 815.133 152.717, 610.972 -17.017, 387.500 0.625 M 403.238 211.453 C 401.307 213.078, 399.046 217.133, 396.544 223.454 C 394.466 228.705, 391.078 235.364, 389.016 238.251 C 383.566 245.880, 379.595 254.370, 377.110 263.703 C 375.910 268.215, 372.896 276.489, 370.413 282.088 C 352.034 323.540, 350.937 429.410, 368.553 461.542 C 373.663 470.863, 375.935 477.406, 378.592 490.453 C 381.201 503.260, 383.107 507.853, 388.593 514.549 C 390.490 516.863, 393.197 521.601, 394.609 525.077 C 397.758 532.825, 402.344 539.657, 404.952 540.485 C 411.413 542.535, 430.518 522.054, 435.075 508.192 C 437.734 500.107, 440.181 495.108, 444.167 489.626 C 448.238 484.025, 449.577 480.566, 453.107 466.531 C 454.771 459.914, 458.110 447.652, 460.528 439.283 C 472.572 397.584, 472.777 340.092, 461.015 302.443 C 458.791 295.324, 455.809 284.550, 454.389 278.500 C 450.294 261.062, 449.200 257.577, 446.776 254.242 C 445.524 252.519, 443.096 249.172, 441.379 246.805 C 439.508 244.223, 436.822 237.891, 434.668 230.983 C 428.923 212.558, 413.393 202.908, 403.238 211.453 M 631 336.670 C 627.425 338.675, 621.253 341.578, 617.284 343.121 C 606.471 347.323, 602.746 349.448, 596.334 355.073 C 593.125 357.889, 587.350 361.738, 583.500 363.627 C 578.140 366.257, 575.425 368.405, 571.914 372.794 C 569.195 376.193, 564.934 379.946, 561.447 382.013 C 557.684 384.244, 553.983 387.589, 551.174 391.299 C 548.760 394.489, 544.351 398.935, 541.378 401.180 C 538.404 403.425, 533.901 408.240, 531.369 411.881 C 528.838 415.521, 525.241 419.773, 523.375 421.330 C 521.510 422.886, 517.687 428.061, 514.881 432.830 C 512.075 437.598, 507.822 444.459, 505.429 448.075 C 500.332 455.780, 499.185 458.331, 489.516 483.500 C 472.469 527.876, 469.843 548.173, 480.209 555.434 C 485.975 559.472, 506.208 553.185, 519.500 543.226 C 522.800 540.753, 530.130 536.505, 535.789 533.786 C 544.447 529.626, 546.656 528.069, 549.721 523.964 C 552.043 520.854, 555.382 518.008, 558.932 516.114 C 564.925 512.916, 567.804 510.184, 573.004 502.760 C 574.831 500.153, 578.764 496.340, 581.745 494.287 C 585.514 491.691, 588.239 488.716, 590.684 484.527 C 592.619 481.212, 596.804 475.782, 599.983 472.460 C 603.320 468.973, 607.334 463.300, 609.478 459.043 C 611.522 454.986, 615.710 447.598, 618.785 442.626 C 625.308 432.081, 631.865 417.627, 634.946 407 C 636.142 402.875, 639.872 391.400, 643.235 381.500 C 655.689 344.837, 650.478 325.742, 631 336.670 M 183.209 336.566 C 172.299 344.208, 176.437 382.807, 191.389 412.865 C 194.299 418.714, 198.363 427.891, 200.420 433.257 C 202.715 439.242, 206.237 445.908, 209.534 450.503 C 212.489 454.622, 216.721 461.098, 218.938 464.894 C 226.764 478.294, 257.763 512.155, 268 518.487 C 270.475 520.017, 275.015 523.647, 278.089 526.552 C 281.410 529.690, 286.446 533.089, 290.500 534.927 C 294.253 536.629, 299.838 540.106, 302.912 542.653 C 326.037 561.823, 351.869 559.159, 349.641 537.836 C 348.880 530.555, 345.157 517.110, 339.581 501.500 C 337.223 494.900, 334.441 486.128, 333.397 482.008 C 332.354 477.887, 329.833 471.362, 327.796 467.508 C 325.758 463.653, 321.866 455.938, 319.146 450.361 C 316.426 444.785, 311.568 436.864, 308.350 432.758 C 305.133 428.653, 300.475 422.425, 298 418.917 C 295.525 415.410, 289.895 408.931, 285.489 404.520 C 281.082 400.109, 275.896 394.700, 273.962 392.500 C 272.029 390.300, 267.759 386.366, 264.474 383.757 C 261.188 381.149, 255.086 375.974, 250.913 372.257 C 246.740 368.541, 240.112 363.742, 236.184 361.593 C 232.256 359.444, 226.577 355.619, 223.565 353.093 C 210.701 342.306, 188.181 333.083, 183.209 336.566" stroke="none" fill="#393028" fill-rule="evenodd"/></svg>