<svg width="1830" height="1723" xmlns="http://www.w3.org/2000/svg" xmlns:xlink="http://www.w3.org/1999/xlink" xml:space="preserve" overflow="hidden"><g transform="translate(-1292 -378)"><path d="M1596.19 1726.34C1326.76 1358.89 1406.22 842.612 1773.66 573.188 2141.11 303.763 2657.39 383.222 2926.81 750.665 3088.14 970.679 3130.26 1256.22 3039.34 1513.45" stroke="#CDA662" stroke-width="68.75" stroke-linecap="round" stroke-linejoin="round" stroke-miterlimit="10" fill="none" fill-rule="evenodd"/><path d="M1603.5 1742.32C1688.37 1764.6 1731.03 1774.02 1859.49 1756.1 1987.95 1738.18 2088.12 1680.76 2173.91 1651.35 2259.71 1621.95 2258.78 1621.03 2340.86 1596.22 2422.95 1571.41 2533.32 1570.03 2616.33 1568.66 2699.34 1567.28 2786.99 1575.09 2838.93 1587.95L2950.5 1616.18" stroke="#CDA662" stroke-width="68.75" stroke-linecap="round" stroke-linejoin="round" stroke-miterlimit="10" fill="none" fill-rule="evenodd"/><path d="M2972.83 1637.26C2753.71 2036.74 2252.23 2182.95 1852.74 1963.83 1796.99 1933.25 1744.96 1896.33 1697.69 1853.8" stroke="#CDA662" stroke-width="68.75" stroke-linecap="round" stroke-linejoin="round" stroke-miterlimit="10" fill="none" fill-rule="evenodd"/><path d="M2241.24 1572.11C2168.38 1582.65 2028.26 1244.32 2050.39 1130.28 2063.34 987.022 2189.36 671.757 2239.25 671.484 2266.39 668.231 2424.43 975.555 2439.89 1121.85 2442.33 1272.06 2272.16 1569.53 2241.24 1572.11Z" stroke="#CDA662" stroke-width="68.75" stroke-linecap="round" stroke-linejoin="round" stroke-miterlimit="10" fill="none" fill-rule="evenodd"/><path d="M2287.3 1593.51C2243.04 1561.8 2380.27 1333.67 2446.21 1293.56 2522.92 1239.23 2731.83 1154.04 2756.22 1177.76 2764.26 1176.74 2685.98 1394.52 2627.95 1470.89 2558.86 1542.33 2302.4 1605.96 2287.3 1593.51Z" stroke="#CDA662" stroke-width="68.75" stroke-linecap="round" stroke-linejoin="round" stroke-miterlimit="10" fill="none" fill-rule="evenodd"/><path d="M356.069 521.152C318.715 560.769 111.021 394.215 80.099 323.495 36.536 240.2-19.9072 21.7636 6.86237 0.777723 6.93202-7.33478 212.262 99.4132 280.171 167.15 341.717 245.18 370.426 507.86 356.069 521.152Z" stroke="#CDA662" stroke-width="68.75" stroke-linecap="round" stroke-linejoin="round" stroke-miterlimit="10" fill="none" fill-rule="evenodd" transform="matrix(-0.133935 0.99099 0.99099 0.133935 1702.48 1170.85)"/></g></svg>